<svg width="218" height="60" viewBox="0 0 218 60" fill="none" xmlns="http://www.w3.org/2000/svg">
<path fill-rule="evenodd" clip-rule="evenodd" d="M27.5448 45.9784C23.1218 45.9784 18.7995 45.318 15.0456 44.0699C14.9 44.0223 14.802 43.8852 14.802 43.7341V27.2484C13.4555 26.0283 12.6885 24.3017 12.6885 22.4827C12.6885 20.7644 13.3575 19.1525 14.5725 17.938C15.7874 16.7235 17.4026 16.0547 19.1187 16.0547C19.8521 16.0547 20.5688 16.1778 21.2546 16.4185C21.7333 16.5864 22.1868 16.8102 22.6123 17.0845C23.2366 14.1517 25.8456 12.0053 28.8997 12.0053C30.5094 12.0053 32.0518 12.6042 33.2388 13.69C34.2633 14.6275 34.952 15.8588 35.2123 17.2048C36.2845 16.4604 37.5638 16.0575 38.8795 16.0575C40.5983 16.0575 42.2108 16.7263 43.4257 17.9408C44.6406 19.1553 45.3097 20.77 45.3097 22.4855C45.3097 24.3045 44.5399 26.0339 43.1934 27.2512C43.1822 28.4266 43.0338 29.6383 42.877 30.92C42.7091 32.308 42.5355 33.7408 42.5355 35.1764C42.5355 37.6922 42.7511 40.1689 43.1738 42.5392C43.2018 42.6987 43.1206 42.8554 42.9722 42.9225C40.8559 43.8908 38.4736 44.6464 35.8898 45.1669C33.2248 45.7042 30.417 45.9784 27.5448 45.9784ZM15.5103 43.4766C19.1355 44.6492 23.2898 45.2676 27.542 45.2676C32.9784 45.2676 38.2497 44.2462 42.4319 42.388C42.0316 40.0597 41.8301 37.6335 41.8301 35.1736C41.8301 33.6961 42.0064 32.2381 42.1772 30.8305C42.3368 29.5124 42.4879 28.2699 42.4879 27.0861C42.4879 26.9826 42.5327 26.8846 42.6111 26.8175C43.8764 25.7289 44.6015 24.1478 44.6015 22.4799C44.6015 19.326 42.0344 16.7599 38.8795 16.7599C37.5246 16.7599 36.2089 17.2412 35.1787 18.1171C35.078 18.2011 34.938 18.2235 34.8176 18.1759C34.6944 18.1255 34.6105 18.0136 34.5993 17.882C34.3193 14.9325 31.8699 12.7105 28.9025 12.7105C26.0079 12.7105 23.5641 14.8737 23.2198 17.7421C23.2058 17.8681 23.1218 17.9772 23.0042 18.0276C22.8866 18.0751 22.7495 18.0583 22.6515 17.98C21.6353 17.1824 20.4148 16.7627 19.1215 16.7627C15.9666 16.7627 13.3995 19.3288 13.3995 22.4827C13.3995 24.1506 14.1246 25.7317 15.3899 26.8203C15.4683 26.8874 15.5131 26.9854 15.5131 27.0889V43.4766H15.5103Z" fill="#F6C90E"/>
<path fill-rule="evenodd" clip-rule="evenodd" d="M42.2304 37.5635H15.1547C14.9588 37.5635 14.802 37.404 14.802 37.2109C14.802 37.0178 14.9616 36.8583 15.1547 36.8583H42.2304C42.4263 36.8583 42.5831 37.0178 42.5831 37.2109C42.5831 37.404 42.4263 37.5635 42.2304 37.5635Z" fill="#F6C90E"/>
<path fill-rule="evenodd" clip-rule="evenodd" d="M22.2988 37.5635C22.1028 37.5635 21.946 37.404 21.946 37.2109V28.9947C21.946 28.7988 22.1056 28.6421 22.2988 28.6421C22.4947 28.6421 22.6515 28.8016 22.6515 28.9947V37.2109C22.6515 37.404 22.4919 37.5635 22.2988 37.5635Z" fill="#F6C90E"/>
<path fill-rule="evenodd" clip-rule="evenodd" d="M35.7022 37.5635C35.5062 37.5635 35.3495 37.404 35.3495 37.2109V28.9947C35.3495 28.7988 35.509 28.6421 35.7022 28.6421C35.8954 28.6421 36.0549 28.8016 36.0549 28.9947V37.2109C36.0549 37.404 35.8982 37.5635 35.7022 37.5635Z" fill="#F6C90E"/>
<path fill-rule="evenodd" clip-rule="evenodd" d="M28.6954 37.5635C28.4994 37.5635 28.3426 37.404 28.3426 37.2109V26.6832C28.3426 26.4873 28.5022 26.3306 28.6954 26.3306C28.8885 26.3306 29.0481 26.4901 29.0481 26.6832V37.2109C29.0481 37.404 28.8885 37.5635 28.6954 37.5635Z" fill="#F6C90E"/>
<path fill-rule="evenodd" clip-rule="evenodd" d="M33.2808 18.7131C33.1016 18.7131 32.9448 18.576 32.928 18.3941C32.7293 16.3149 31.0049 14.7478 28.9137 14.7478C28.7178 14.7478 28.561 14.5882 28.561 14.3951C28.561 14.2021 28.7206 14.0425 28.9137 14.0425C30.1007 14.0425 31.2372 14.4847 32.1134 15.2851C32.984 16.0798 33.5243 17.1628 33.6335 18.3298C33.6531 18.5257 33.5103 18.6964 33.3143 18.7159C33.3031 18.7131 33.2919 18.7131 33.2808 18.7131Z" fill="white"/>
<path fill-rule="evenodd" clip-rule="evenodd" d="M14.5585 23.4454C14.3625 23.4454 14.2058 23.2859 14.2058 23.0928C14.2058 21.6264 14.7768 20.2496 15.8126 19.2141C16.8484 18.1787 18.2257 17.6078 19.6925 17.6078C19.8885 17.6078 20.0453 17.7673 20.0453 17.9604C20.0453 18.1535 19.8857 18.313 19.6925 18.313C17.0583 18.313 14.914 20.4566 14.914 23.09C14.914 23.2859 14.7544 23.4454 14.5585 23.4454Z" fill="white"/>
<path fill-rule="evenodd" clip-rule="evenodd" d="M43.4397 23.4453C43.2437 23.4453 43.087 23.2858 43.087 23.0927C43.087 20.4594 40.9426 18.3158 38.3084 18.3158C38.1125 18.3158 37.9557 18.1563 37.9557 17.9632C37.9557 17.7701 38.1153 17.6106 38.3084 17.6106C39.7753 17.6106 41.1526 18.1814 42.1884 19.2169C43.2241 20.2523 43.7952 21.6291 43.7952 23.0955C43.7952 23.2858 43.6357 23.4453 43.4397 23.4453Z" fill="white"/>
<path fill-rule="evenodd" clip-rule="evenodd" d="M23.83 20.8484C23.7237 20.8484 23.6173 20.8008 23.5473 20.7085C22.7691 19.6814 22.5255 17.8261 22.5143 17.7477C22.4891 17.5546 22.6263 17.3755 22.8195 17.3531C23.0126 17.328 23.1918 17.4651 23.2142 17.6582C23.217 17.675 23.4437 19.4044 24.1072 20.2803C24.2247 20.437 24.194 20.6581 24.04 20.7756C23.9812 20.8232 23.9056 20.8484 23.83 20.8484Z" fill="#F6C90E"/>
<path fill-rule="evenodd" clip-rule="evenodd" d="M33.9862 20.8484C33.9106 20.8484 33.8378 20.826 33.7734 20.7756C33.6167 20.6581 33.5859 20.4342 33.7063 20.2803C34.3725 19.4044 34.5965 17.675 34.5993 17.6582C34.6245 17.4651 34.8008 17.328 34.994 17.3531C35.1871 17.3783 35.3243 17.5546 35.2991 17.7477C35.2879 17.8261 35.0444 19.6814 34.2661 20.7085C34.1989 20.798 34.0926 20.8484 33.9862 20.8484Z" fill="#F6C90E"/>
<path fill-rule="evenodd" clip-rule="evenodd" d="M31.0412 57.981C31.1532 57.9586 31.2624 57.939 31.3632 57.9166C70.6973 50.0166 62.9402 4.81332 31.0412 0.0335734C28.7178 -0.414178 27.738 3.9486 31.6207 4.63422C59.2478 11.6723 63.4049 46.5829 31.0412 57.981Z" fill="url(#paint0_linear_114_88)"/>
<path fill-rule="evenodd" clip-rule="evenodd" d="M26.9597 0C26.8478 0.0223876 26.7386 0.0419772 26.6378 0.0643648C-12.6963 7.96438 -4.94202 53.1677 26.9597 57.9474C29.2832 58.3952 30.263 54.0324 26.3803 53.3468C-1.24683 46.3115 -5.40391 11.3981 26.9597 0Z" fill="url(#paint1_linear_114_88)"/>
<path d="M74.6602 41V20.6094H74.9727L79.0352 27.1328V41H74.6602ZM74.6602 16.4688V13.6562H78.293L92.043 35.7266V41H89.9336L74.6602 16.4688ZM87.668 25.0625V13.6562H92.043V31.5859H91.7305L87.668 25.0625ZM151.691 41V20.6094H152.004L156.066 27.1328V41H151.691ZM151.691 16.4688V13.6562H155.324L169.074 35.7266V41H166.965L151.691 16.4688ZM164.699 25.0625V13.6562H169.074V31.5859H168.762L164.699 25.0625Z" fill="#F6C90E"/>
<path d="M95.168 35.1016V25.2188C95.168 23.9427 95.7409 22.7057 96.8867 21.5078C98.2409 20.0755 99.9466 19.3594 102.004 19.3594V23.3828C100.65 23.3828 99.7773 23.9427 99.3867 25.0625C99.3086 25.2969 99.2695 25.5312 99.2695 25.7656V34.5547C99.2695 35.5443 99.7253 36.2604 100.637 36.7031C101.053 36.9115 101.522 37.0156 102.043 37.0156V41.0391C99.5169 41.0391 97.5638 40.0234 96.1836 37.9922C95.5065 36.9766 95.168 36.013 95.168 35.1016ZM103.762 41.0391V37.0156C105.012 37.0156 105.832 36.4818 106.223 35.4141C106.327 35.1276 106.379 34.8672 106.379 34.6328V25.7656C106.379 24.6719 105.871 23.9427 104.855 23.5781C104.517 23.4479 104.139 23.3828 103.723 23.3828V19.3594C106.171 19.3594 108.059 20.349 109.387 22.3281C110.064 23.3438 110.402 24.3073 110.402 25.2188V35.1016C110.402 36.3776 109.855 37.6276 108.762 38.8516C107.434 40.2839 105.767 41.013 103.762 41.0391ZM113.371 41V25.2188C113.371 23.8646 113.931 22.5755 115.051 21.3516C116.353 19.9714 118.007 19.2812 120.012 19.2812V23.4219C118.71 23.4219 117.928 23.9948 117.668 25.1406C117.616 25.349 117.59 25.5573 117.59 25.7656V41H113.371ZM121.809 23.4219V19.2812C123.684 19.3073 125.22 19.9062 126.418 21.0781C127.642 19.8802 129.178 19.2812 131.027 19.2812V23.4219C129.673 23.4219 128.866 23.9948 128.605 25.1406C128.553 25.349 128.527 25.5573 128.527 25.7656V41H124.309V25.7656C124.309 24.5938 123.775 23.8516 122.707 23.5391C122.421 23.4609 122.121 23.4219 121.809 23.4219ZM132.785 23.4219V19.2812C135.259 19.2812 137.16 20.2969 138.488 22.3281C139.139 23.3438 139.465 24.3073 139.465 25.2188V41H135.246V25.7656C135.246 24.4115 134.595 23.6432 133.293 23.4609C133.137 23.4349 132.967 23.4219 132.785 23.4219ZM172.199 35.1016V25.2188C172.199 23.9427 172.772 22.7057 173.918 21.5078C175.272 20.0755 176.978 19.3594 179.035 19.3594V23.3828C177.681 23.3828 176.809 23.9427 176.418 25.0625C176.34 25.2969 176.301 25.5312 176.301 25.7656V34.5547C176.301 35.5443 176.757 36.2604 177.668 36.7031C178.085 36.9115 178.553 37.0156 179.074 37.0156V41.0391C176.548 41.0391 174.595 40.0234 173.215 37.9922C172.538 36.9766 172.199 36.013 172.199 35.1016ZM180.793 41.0391V37.0156C182.043 37.0156 182.863 36.4818 183.254 35.4141C183.358 35.1276 183.41 34.8672 183.41 34.6328V25.7656C183.41 24.6719 182.902 23.9427 181.887 23.5781C181.548 23.4479 181.171 23.3828 180.754 23.3828V19.3594C183.202 19.3594 185.09 20.349 186.418 22.3281C187.095 23.3438 187.434 24.3073 187.434 25.2188V35.1016C187.434 36.3776 186.887 37.6276 185.793 38.8516C184.465 40.2839 182.798 41.013 180.793 41.0391ZM190.402 41V25.2188C190.402 23.8646 190.962 22.5755 192.082 21.3516C193.384 19.9714 195.038 19.2812 197.043 19.2812V23.4219C195.741 23.4219 194.96 23.9948 194.699 25.1406C194.647 25.349 194.621 25.5573 194.621 25.7656V41H190.402ZM198.84 23.4219V19.2812C200.715 19.3073 202.251 19.9062 203.449 21.0781C204.673 19.8802 206.21 19.2812 208.059 19.2812V23.4219C206.704 23.4219 205.897 23.9948 205.637 25.1406C205.585 25.349 205.559 25.5573 205.559 25.7656V41H201.34V25.7656C201.34 24.5938 200.806 23.8516 199.738 23.5391C199.452 23.4609 199.152 23.4219 198.84 23.4219ZM209.816 23.4219V19.2812C212.29 19.2812 214.191 20.2969 215.52 22.3281C216.171 23.3438 216.496 24.3073 216.496 25.2188V41H212.277V25.7656C212.277 24.4115 211.626 23.6432 210.324 23.4609C210.168 23.4349 209.999 23.4219 209.816 23.4219Z" fill="white"/>
<defs>
<linearGradient id="paint0_linear_114_88" x1="43.5006" y1="0.00140381" x2="43.5006" y2="57.981" gradientUnits="userSpaceOnUse">
<stop offset="0.45" stop-color="#FFCE00"/>
<stop offset="1" stop-color="white"/>
</linearGradient>
<linearGradient id="paint1_linear_114_88" x1="14.4999" y1="0" x2="14.4999" y2="57.9796" gradientUnits="userSpaceOnUse">
<stop stop-color="white"/>
<stop offset="0.85" stop-color="#FFCE00"/>
</linearGradient>
</defs>
</svg>
